<?xml version="1.0" encoding="UTF-8" standalone="no" ?>
<!DOCTYPE svg PUBLIC "-//W3C//DTD SVG 1.1//EN" "http://www.w3.org/Graphics/SVG/1.1/DTD/svg11.dtd">
<svg xmlns="http://www.w3.org/2000/svg" xmlns:xlink="http://www.w3.org/1999/xlink" version="1.1" width="640" height="640" viewBox="0 0 640 640" xml:space="preserve">
<desc>Created with Fabric.js 4.6.0</desc>
<defs>
</defs>
<g transform="matrix(7.32 0 0 7.32 -39.34 252.44)" id="xiObf-aVlCbLWlDyDbcFz"  >
<path style="stroke: rgb(123,115,21); stroke-width: 0; stroke-dasharray: none; stroke-linecap: butt; stroke-dashoffset: 0; stroke-linejoin: miter; stroke-miterlimit: 4; fill: rgb(255,98,13); fill-rule: nonzero; opacity: 1;" vector-effect="non-scaling-stroke"  transform=" translate(0, 0)" d="M 0 -35.28115 C 19.47519 -35.28115 35.28115 -19.475199999999997 35.28115 0 C 35.28115 19.47519 19.475199999999997 35.28115 0 35.28115 C -19.47519 35.28115 -35.28115 19.475199999999997 -35.28115 0 C -35.28115 -19.47519 -19.475199999999997 -35.28115 0 -35.28115 z" stroke-linecap="round" />
</g>
<g transform="matrix(10.86 0 0 10.47 353.62 568.29)" id="7MPcWWj0a_88m85Tkc65H"  >
<path style="stroke: rgb(123,115,21); stroke-width: 0; stroke-dasharray: none; stroke-linecap: butt; stroke-dashoffset: 0; stroke-linejoin: miter; stroke-miterlimit: 4; fill: rgb(255,98,13); fill-rule: nonzero; opacity: 1;" vector-effect="non-scaling-stroke"  transform=" translate(0, 0)" d="M 0 -35.28115 C 19.47519 -35.28115 35.28115 -19.475199999999997 35.28115 0 C 35.28115 19.47519 19.475199999999997 35.28115 0 35.28115 C -19.47519 35.28115 -35.28115 19.475199999999997 -35.28115 0 C -35.28115 -19.47519 -19.475199999999997 -35.28115 0 -35.28115 z" stroke-linecap="round" />
</g>
<g transform="matrix(10.86 0 0 10.47 37.74 426.7)" id="TgHnPhhKk896FmtNUBWxf"  >
<path style="stroke: rgb(123,115,21); stroke-width: 0; stroke-dasharray: none; stroke-linecap: butt; stroke-dashoffset: 0; stroke-linejoin: miter; stroke-miterlimit: 4; fill: rgb(255,98,13); fill-rule: nonzero; opacity: 1;" vector-effect="non-scaling-stroke"  transform=" translate(0, 0)" d="M 0 -35.28115 C 19.47519 -35.28115 35.28115 -19.475199999999997 35.28115 0 C 35.28115 19.47519 19.475199999999997 35.28115 0 35.28115 C -19.47519 35.28115 -35.28115 19.475199999999997 -35.28115 0 C -35.28115 -19.47519 -19.475199999999997 -35.28115 0 -35.28115 z" stroke-linecap="round" />
</g>
</svg>